Coordinates
version=1
nRows=14
nColumns=24
inDegrees=yes

Units are S.I. units (second, meters, Newtons, ...)
Angles are in degrees.

endheader
time	pelvis_tilt	pelvis_list	pelvis_rotation	pelvis_tx	pelvis_ty	pelvis_tz	hip_flexion_r	hip_adduction_r	hip_rotation_r	knee_angle_r	ankle_angle_r	subtalar_angle_r	mtp_angle_r	hip_flexion_l	hip_adduction_l	hip_rotation_l	knee_angle_l	ankle_angle_l	subtalar_angle_l	mtp_angle_l	lumbar_extension	lumbar_bending	lumbar_rotation
      2.52000000	      8.16910771	     -6.90222332	     -8.79018884	      1.06143320	      0.98525840	      0.01838887	    -19.03600886	     -3.23927428	     -7.38646913	    -37.49841737	    -13.90441983	     10.97089358	     28.39281207	     13.85492010	     -6.60832072	    -24.52165486	    -22.63211013	     -6.42117551	    -13.65135663	     11.51139927	    -20.75328943	     12.44384122	     53.08872177
      2.52500000	      8.18968826	     -6.92423418	     -8.41382400	      1.06819771	      0.98633503	      0.01718207	    -18.35489024	     -3.22531715	     -7.33462739	    -38.85524115	    -14.65748473	     10.54322732	     26.14998855	     13.48457807	     -6.43763814	    -24.27840018	    -22.65969211	     -6.02309036	    -13.49703741	     10.98811300	    -20.67906810	     12.54676774	     52.71880152
      2.53000000	      8.19709578	     -6.95455769	     -8.00665298	      1.07493075	      0.98740177	      0.01594328	    -17.65393205	     -3.17802061	     -7.31612415	    -40.15146541	    -15.46601405	      9.89801185	     25.68732148	     13.12261080	     -6.26949063	    -23.95986863	    -22.65538445	     -5.70145040	    -13.38376361	     10.96987338	    -20.58544339	     12.67535200	     52.32671807
      2.53500000	      8.22217059	     -6.98399893	     -7.65063235	      1.08160262	      0.98853364	      0.01479533	    -16.92141158	     -3.14008516	     -7.23824555	    -41.53218733	    -15.57422612	      9.64772701	     21.30132625	     12.72342852	     -6.12120781	    -23.74661813	    -22.64637897	     -5.27192864	    -13.17158064	      9.98218811	    -20.53312756	     12.78315705	     51.99728194
      2.54000000	      8.23963605	     -7.02206408	     -7.26479777	      1.08823718	      0.98965000	      0.01361409	    -16.17885759	     -3.07192502	     -7.20252486	    -42.84301512	    -15.72364903	      9.18550582	     18.88375806	     12.32468968	     -5.97499408	    -23.46141664	    -22.60388943	     -4.91214545	    -13.00298415	      9.54970423	    -20.46071211	     12.91588999	     51.62619664
      2.54500000	      8.26741698	     -7.06645084	     -6.88082553	      1.09483484	      0.99079990	      0.01246105	    -15.43594717	     -2.98947669	     -7.18364987	    -44.11472606	    -15.70676580	      8.69787046	     16.68307800	     11.90582619	     -5.84227984	    -23.18766698	    -22.54258427	     -4.57527672	    -12.82105012	      9.09464683	    -20.40985539	     13.05612675	     51.29258222
      2.55000000	      8.29551764	     -7.13046256	     -6.48776770	      1.10138437	      0.99194701	      0.01131661	    -14.68068911	     -2.87127533	     -7.16358618	    -45.35107823	    -15.50885039	      8.23923029	     14.57748599	     11.48506241	     -5.73389930	    -22.88907231	    -22.48279393	     -4.19914907	    -12.66595498	      8.57722350	    -20.35998586	     13.21970752	     50.93269475
      2.55500000	      8.30765890	     -7.19164653	     -6.09021315	      1.10787264	      0.99308158	      0.01018332	    -13.90249537	     -2.75101392	     -7.18775900	    -46.51593422	    -15.39137385	      7.68910211	     14.41500737	     11.08041654	     -5.63227898	    -22.59231229	    -22.40344359	     -3.96045510	    -12.53856807	      8.57724086	    -20.29607347	     13.38710203	     50.57940123
      2.56000000	      8.35193951	     -7.26649196	     -5.68925332	      1.11434998	      0.99428878	      0.00903751	    -13.14558335	     -2.61605438	     -7.23859890	    -47.67417755	    -14.73652048	      7.29623436	     11.32158124	     10.61520188	     -5.53828903	    -22.27681910	    -22.28569636	     -3.55677198	    -12.28793915	      7.58555287	    -20.27948656	     13.57822473	     50.28938028
      2.56500000	      8.35934273	     -7.34645785	     -5.30048090	      1.12078493	      0.99542832	      0.00793845	    -12.34460143	     -2.46914862	     -7.29353127	    -48.73953111	    -14.33894877	      6.79347303	     11.22717946	     10.19095560	     -5.46737784	    -21.99615903	    -22.16122991	     -3.29939553	    -12.15452063	      7.59033204	    -20.21316227	     13.76961112	     49.93342932
      2.57000000	      8.41214362	     -7.41832265	     -4.90652258	      1.12719929	      0.99661771	      0.00683117	    -11.57830515	     -2.34184179	     -7.40920143	    -49.79190677	    -13.54772086	      6.41303931	      9.02188661	      9.71004761	     -5.38674419	    -21.70921918	    -22.03272174	     -2.89872220	    -11.91343525	      6.64895022	    -20.19978546	     13.95159895	     49.59762677
      2.57500000	      8.44072650	     -7.50904715	     -4.51066489	      1.13357386	      0.99778132	      0.00574759	    -10.79362771	     -2.18697950	     -7.53623706	    -50.73341349	    -12.94079835	      5.98733349	      9.02341802	      9.25571376	     -5.33925987	    -21.43085120	    -21.88842627	     -2.67672127	    -11.75267986	      6.65435418	    -20.16537339	     14.16217965	     49.27748412
      2.58000000	      8.47672380	     -7.59811043	     -4.11224130	      1.13991995	      0.99894963	      0.00467250	    -10.01183444	     -2.03897525	     -7.71238899	    -51.61133274	    -12.28174940	      5.54708524	      8.97946056	      8.78454098	     -5.29431981	    -21.15732072	    -21.72324966	     -2.44784004	    -11.57908628	      6.60602720	    -20.13933368	     14.37272054	     48.96609535
      2.58500000	      8.50761797	     -7.68882781	     -3.72175658	      1.14622284	      1.00009375	      0.00360955	     -9.21978786	     -1.89408487	     -7.91189749	    -52.42109443	    -11.56685498	      5.14625504	      8.90035378	      8.31182726	     -5.25869235	    -20.90225560	    -21.54108351	     -2.21067532	    -11.38516382	      6.49380892	    -20.10851193	     14.58826468	     48.66004674
